<svg xmlns="http://www.w3.org/2000/svg" width="18" height="16" viewBox="0 0 18 16">
  <g id="icon" transform="translate(6)">
    <path id="Vector" d="M1.357,0H7.275A1.346,1.346,0,0,1,8.632,1.333,1.346,1.346,0,0,1,7.275,2.666H1.357A1.346,1.346,0,0,1,0,1.333,1.346,1.346,0,0,1,1.357,0Z" transform="translate(3.368 11.661)" fill="#fff" opacity="0.4"/>
    <path id="Vector-2" data-name="Vector" d="M0,1.332A1.345,1.345,0,0,1,1.356,0H7.274A1.346,1.346,0,0,1,8.631,1.332,1.346,1.346,0,0,1,7.274,2.665H1.356A1.346,1.346,0,0,1,0,1.332Z" transform="translate(-6 1.709)" fill="#fff" opacity="0.4"/>
    <path id="Vector-3" data-name="Vector" d="M0,3.041A3.068,3.068,0,0,0,3.095,6.082,3.069,3.069,0,0,0,6.19,3.041,3.069,3.069,0,0,0,3.095,0,3.068,3.068,0,0,0,0,3.041Z" transform="translate(5.81)" fill="#fff"/>
    <path id="Vector-4" data-name="Vector" d="M0,3.042A3.068,3.068,0,0,0,3.1,6.082a3.069,3.069,0,0,0,3.1-3.041A3.069,3.069,0,0,0,3.1,0,3.068,3.068,0,0,0,0,3.042Z" transform="translate(-6 9.918)" fill="#fff"/>
  </g>
</svg>
